<svg width="389" height="87" viewBox="0 0 389 87" fill="none" xmlns="http://www.w3.org/2000/svg">
<path d="M38.6091 2.33611e-07C41.7168 1.3071 44.8308 2.41101 47.7008 3.96535C52.9973 6.83377 56.2755 11.3436 57.3647 17.3082C57.7421 19.3749 57.8723 21.4887 58.0703 23.5853C58.1858 24.8079 58.9828 25.5928 60.3918 25.5771C62.2183 25.5567 64.0435 25.3756 65.8695 25.3708C74.7437 25.3477 83.6184 25.3028 92.4919 25.3817C97.8952 25.4298 102.519 29.1228 104.429 33.848C105.923 37.5448 105.778 41.2386 104.02 44.7238C102.117 48.4973 99.2661 51.3084 94.7926 51.8701C93.706 52.0065 92.6056 52.0859 91.5108 52.0956C81.195 52.1873 70.8787 52.226 60.5634 52.3539C57.3033 52.3943 53.5726 54.9722 52.2705 58.8293C50.4733 64.1535 54.4894 69.9946 59.6774 70.7686C60.683 70.9186 61.7088 70.9974 62.7255 70.9992C72.5216 71.016 82.3179 71.008 92.1141 71.0104C93.8895 71.0109 94.2912 71.4056 94.2755 73.0959C94.2628 74.4674 93.8146 74.9139 92.4403 74.9291C85.5051 75.0055 78.57 75.1252 71.6346 75.1434C67.504 75.1542 63.3576 75.1985 59.2466 74.872C55.4962 74.5742 52.4603 72.6403 50.2962 69.5227C48.3574 66.7297 47.4572 63.5845 47.7293 60.1953C47.9323 57.6674 48.8806 55.3484 50.4926 53.3759C52.4719 50.9539 54.8944 49.1597 58.05 48.5544C58.4547 48.4768 58.8712 48.4213 59.2822 48.421C69.2705 48.4137 79.2596 48.4826 89.2466 48.3703C91.8956 48.3405 94.673 48.3606 96.9845 46.5818C99.6462 44.5336 101.525 41.9835 101.384 38.5135C101.211 34.2818 97.6885 30.4909 93.5261 29.751C92.6766 29.5999 91.8026 29.5221 90.9397 29.5206C81.9503 29.5043 72.9608 29.5189 63.9714 29.5003C62.7985 29.4979 61.6267 29.307 60.4531 29.291C58.4108 29.2632 58.2756 29.4601 58.0701 31.4998C57.6955 35.2168 57.1286 38.9125 55.4723 42.3043C54.3943 44.5121 52.8526 46.3981 50.9111 47.9711C46.8469 51.2639 41.9397 52.6634 37.1194 54.271C36.2002 54.5776 35.3212 53.8678 35.2733 52.6314C35.1179 48.616 35.5325 44.69 37.0658 40.9097C38.9994 36.1429 42.3916 32.7491 46.751 30.2029C47.1038 29.9968 47.447 29.773 47.7831 29.5407C47.9013 29.459 47.9846 29.3269 48.2285 29.0589C45.7985 29.0589 43.5168 28.941 41.2608 29.1305C40.5817 29.1876 39.8801 30.0179 39.3492 30.6325C35.4932 35.0978 31.108 38.891 25.6612 41.2787C22.0901 42.8442 18.4728 42.5267 14.9967 40.9267C10.6857 38.9424 7.17233 35.8592 3.97018 32.4278C2.59058 30.9494 1.40852 29.2867 0.058573 27.6868C-0.0195636 27.1195 -0.0195636 26.5729 0.0588091 25.9029C0.941125 24.7455 1.66184 23.6318 2.56394 22.6922C5.83831 19.2816 9.18086 15.9709 13.3899 13.6345C17.0834 11.5843 20.8659 10.9251 24.9186 12.1435C27.4083 12.892 29.5921 14.2727 31.5414 15.9338C33.7507 17.8164 35.8133 19.875 37.8905 21.9074C39.1098 23.1003 40.0001 24.8299 41.8473 25.0443C43.7456 25.2648 45.6895 25.0932 47.7963 25.0932C46.2443 23.8011 44.8961 22.6041 43.4705 21.5077C40.6258 19.3199 38.5879 16.5523 37.3309 13.2067C35.9922 9.64351 35.7863 5.9257 35.974 2.17801C36.0108 1.44277 36.4073 0.725538 36.6379 0C37.2604 2.3055e-07 37.8829 2.33611e-07 38.6091 2.33611e-07ZM14.3659 36.6832C17.8435 38.9175 21.4892 39.3169 25.2647 37.555C29.4131 35.6189 32.8691 32.7554 35.899 29.3549C35.9347 29.3148 35.8969 29.2092 35.8877 29.0122C35.5953 28.9515 35.2792 28.836 34.9601 28.8272C31.7117 28.7376 28.463 28.6545 25.214 28.593C23.7168 28.5647 22.218 28.5622 20.7212 28.5977C19.7904 28.6198 19.0415 28.3796 19.1394 27.3175C19.2815 25.7753 19.6819 25.1104 20.7742 25.1278C21.8108 25.1443 22.8476 25.1473 23.8843 25.1478C27.9364 25.1499 31.9886 25.1487 36.2507 25.1487C34.1818 22.5911 32.0531 20.4043 29.4957 18.7387C27.5738 17.4869 25.5521 16.2296 23.3945 15.535C20.0537 14.4596 16.8995 15.5498 13.9263 17.2604C10.2607 19.3694 7.36004 22.3476 4.46863 25.3465C3.37597 26.4798 3.40287 26.8899 4.50757 28.1134C7.41133 31.3296 10.5403 34.2884 14.3659 36.6832ZM40.4288 41.2698C38.9781 43.991 38.2549 46.88 38.2837 49.9603C38.4978 49.9841 38.5793 50.0154 38.6483 49.9977C46.0846 48.091 51.8178 44.1527 54.3977 36.5793C55.0949 34.5327 55.2497 32.3874 54.6669 30.0261C48.7885 32.3831 43.6984 35.5126 40.4288 41.2698ZM52.2217 12.6808C49.3486 8.29446 44.8821 6.22091 40.2269 4.42429C40.09 4.37147 39.9256 4.38623 39.7736 4.37722C38.9438 4.32805 38.5273 4.59198 38.8109 5.52033C38.9869 6.09633 39.1164 6.70069 39.1614 7.30022C39.4273 10.8462 40.8381 13.9011 43.1214 16.5734C46.2224 20.2027 50.3684 22.375 54.4609 24.613C54.5962 24.6869 54.8073 24.6223 54.9583 24.6223C54.8574 20.4575 54.5805 16.4145 52.2217 12.6808Z" fill="white"/>
<path d="M113.059 86.2257C111.976 86.072 111.001 85.9229 110.027 85.7638C106.299 85.1548 102.721 84.1007 99.9656 81.3729C98.104 79.5302 97.0143 77.2574 96.7683 74.5325C96.5315 71.9096 96.9777 69.5196 98.1625 67.2079C99.9083 63.8016 102.696 61.5989 106.172 60.1737C108.761 59.1123 111.463 58.6222 114.255 58.5528C115.889 58.5122 117.52 58.37 119.154 58.3387C120.987 58.3036 121.973 59.2363 121.967 61.1383C121.956 64.384 122.165 67.6305 122.157 70.8763C122.144 75.5435 122.017 80.2104 121.945 84.8776C121.936 85.4867 121.852 86.016 121.051 86.1394C118.403 86.2257 115.785 86.2257 113.059 86.2257Z" fill="white"/>
<path d="M388.457 31.4773C387.71 32.3567 386.727 32.4634 385.744 32.498C384.594 32.5385 383.44 32.5321 382.29 32.502C380.333 32.451 379.732 33.0577 379.714 35.0958C379.663 41.0826 379.696 47.0702 379.696 53.0574C379.696 54.8906 379.488 55.1002 377.676 55.1013C376.908 55.1018 376.14 55.1025 375.373 55.1012C373.308 55.0976 372.781 54.5833 372.78 52.5521C372.778 46.6417 372.779 40.7312 372.779 34.8207C372.779 34.552 372.807 34.2798 372.773 34.0154C372.655 33.086 372.291 32.4607 371.18 32.4936C369.416 32.5459 367.65 32.5143 365.884 32.5053C364.546 32.4985 364.095 32.086 364.027 30.7551C363.986 29.9512 364.017 29.1436 364.019 28.3376C364.023 26.7758 364.493 26.2918 366.082 26.2862C369.383 26.2746 372.683 26.2827 375.984 26.2827C379.63 26.2827 383.276 26.269 386.922 26.3C387.379 26.3039 387.834 26.5435 388.374 26.7088C388.457 28.2856 388.457 29.8275 388.457 31.4773Z" fill="#77ABDB"/>
<path d="M388.457 73.6896C387.961 73.776 387.465 73.776 387.013 73.776C386.616 72.9229 386.244 72.1233 385.854 71.2831C384.691 71.2831 383.515 71.2831 382.341 71.2831C381.539 73.828 381.539 73.828 379.709 73.7295C380.976 70.7606 382.231 67.8196 383.509 64.8234C383.822 64.8234 384.2 64.8234 384.623 64.8234C385.835 67.5357 387.064 70.287 388.375 73.0614C388.457 73.2573 388.457 73.4302 388.457 73.6896ZM383.144 69.4952C383.171 69.615 383.195 69.8385 383.226 69.8395C383.859 69.8598 384.493 69.8548 385.207 69.8548C384.836 69.0077 384.508 68.255 384.093 67.3071C383.711 68.1293 383.436 68.7198 383.144 69.4952Z" fill="white"/>
<path d="M307.059 35.4754C307.916 32.8672 308.775 30.3546 309.593 27.8288C309.943 26.7489 310.532 26.1833 311.759 26.2611C313.213 26.3532 314.678 26.3235 316.136 26.2678C317.033 26.2335 317.404 26.6498 317.194 27.4309C316.901 28.5205 316.485 29.5812 316.068 30.6326C313.072 38.1738 310.056 45.7072 307.061 53.2489C306.45 54.7881 306.035 55.1006 304.328 55.1015C300.381 55.1034 300.398 55.0829 298.97 51.3945C298.087 49.114 297.098 46.8751 296.056 44.3789C294.919 47.2225 293.819 49.8437 292.823 52.5039C291.989 54.7321 291.56 55.1015 289.205 55.1015C289.013 55.1015 288.821 55.1044 288.629 55.101C285.475 55.0462 286.104 55.696 284.758 52.3825C282.119 45.8842 279.6 39.3368 277.031 32.8101C276.323 31.0109 275.6 29.2174 274.912 27.4105C274.797 27.1089 274.826 26.7523 274.775 26.2969C276.679 26.2969 278.486 26.1756 280.267 26.3359C281.654 26.4606 282.396 27.5928 282.838 28.8222C283.942 31.8904 285.007 34.9726 286.073 38.054C287.04 40.8455 287.987 43.6435 289.016 46.6512C289.906 44.2511 290.751 42.0247 291.537 39.7778C291.63 39.5126 291.426 39.1252 291.315 38.8101C290.032 35.1617 288.732 31.5196 287.458 27.8682C287.057 26.7198 287.362 26.3045 288.553 26.2856C289.436 26.2715 290.319 26.2807 291.203 26.2832C292.676 26.2872 293.45 26.8371 293.93 28.2496C294.635 30.3262 295.327 32.4074 296.121 34.7714C296.835 32.4135 297.486 30.3598 298.075 28.2885C298.503 26.7844 299.096 26.2842 300.673 26.2833C301.594 26.2827 302.521 26.2279 303.437 26.3049C304.614 26.4039 305.056 26.9339 304.716 27.9356C303.91 30.3043 303.219 32.7461 302.098 34.9647C300.554 38.0203 300.716 40.9251 302.049 43.9085C302.381 44.652 302.784 45.364 303.266 46.3112C304.589 42.5471 305.817 39.0564 307.059 35.4754Z" fill="#77ABDB"/>
<path d="M247.131 36.1964C247.208 34.2553 247.327 32.4299 247.345 30.6035C247.356 29.5088 247.208 28.4124 247.131 27.3169C247.089 26.7207 247.197 26.4072 247.943 26.2438C250.047 25.7828 251.2 26.0961 252.665 28.0299C254.792 30.8377 256.995 33.588 259.17 36.3599C261.391 39.1919 263.614 42.0228 265.845 44.8474C266.16 45.2467 266.524 45.6079 266.958 46.0904C266.958 45.6249 266.958 45.2605 266.958 44.8961C266.958 39.5555 266.96 34.215 266.956 28.8745C266.956 28.4925 266.973 28.0996 266.893 27.7308C266.696 26.8165 267.049 26.3231 267.963 26.2913C268.999 26.2552 270.041 26.236 271.074 26.2996C271.753 26.3414 272.214 26.6487 271.88 27.4894C271.76 27.7929 271.803 28.1686 271.803 28.5113C271.799 36.6181 271.801 44.7249 271.798 52.8317C271.798 53.5552 272.051 54.6291 271.691 54.916C271.21 55.2982 270.233 55.0032 269.486 55.1139C267.382 55.4257 266.671 53.7094 265.66 52.497C263.81 50.2776 262.041 47.9903 260.239 45.7305C257.852 42.7373 255.467 39.7429 253.079 36.7508C252.869 36.4877 252.643 36.2376 252.203 35.7229C252.203 36.4141 252.203 36.7728 252.203 37.1314C252.203 42.5488 252.196 47.9661 252.208 53.3835C252.211 54.7983 251.842 55.271 250.527 55.112C249.997 55.048 249.452 55.1015 248.914 55.1015C247.326 55.1012 247.135 54.9153 247.133 53.2553C247.128 47.6074 247.131 41.9595 247.131 36.1964Z" fill="white"/>
<path d="M317.202 47.9289C319.611 41.2454 322.002 34.6503 324.403 28.0592C324.939 26.5865 325.418 26.2828 327.04 26.2827C328.039 26.2826 329.042 26.3436 330.035 26.2658C331.059 26.1855 331.599 26.6647 331.916 27.5515C332.885 30.2653 333.847 32.9817 334.833 35.6898C336.907 41.3915 338.994 47.0884 341.075 52.7879C341.192 53.1088 341.333 53.4271 341.399 53.7593C341.562 54.5829 341.3 55.0771 340.362 55.1087C339.145 55.1497 337.931 55.2977 336.714 55.316C335.752 55.3305 334.88 54.9905 334.471 54.0436C334.038 53.0393 333.633 52.0091 333.358 50.9531C333.008 49.6112 332.231 48.7845 330.863 48.7057C329.373 48.6197 327.873 48.6541 326.379 48.6996C324.435 48.7587 323.558 50.074 322.986 51.7114C322.724 52.4626 322.572 53.2987 322.13 53.9271C321.764 54.4473 321.083 54.9492 320.474 55.0503C319.39 55.23 318.252 55.1401 317.14 55.0908C315.552 55.0204 315.029 54.2614 315.527 52.7425C316.048 51.1571 316.631 49.5925 317.202 47.9289ZM326.408 40.1823C326 41.3576 325.591 42.5328 325.149 43.8044C326.789 43.8044 328.35 43.8128 329.91 43.8017C331.083 43.7933 331.222 43.5886 330.835 42.4162C330.089 40.1538 329.327 37.8962 328.568 35.638C328.484 35.3869 328.374 35.1443 328.204 34.7156C327.564 36.6312 327.001 38.3158 326.408 40.1823Z" fill="#77ABDB"/>
<path d="M203.348 38.2712C206.341 38.2712 209.221 38.2928 212.101 38.2592C213.069 38.2479 213.519 38.4899 213.496 39.5956C213.432 42.667 213.739 42.4324 210.625 42.4228C207.937 42.4146 205.248 42.4199 202.56 42.4216C201.064 42.4226 200.598 43.0937 200.77 44.538C200.919 45.7877 200.936 47.0863 200.772 48.3318C200.569 49.8671 201.17 50.719 202.762 50.7203C205.757 50.7226 208.753 50.7306 211.748 50.7111C212.229 50.708 212.713 50.5972 213.188 50.4976C214.814 50.1564 215.845 50.8496 215.982 52.516C216.035 53.171 215.914 53.8798 215.692 54.5003C215.592 54.781 215.056 55.0742 214.716 55.0762C208.802 55.1109 202.888 55.102 196.974 55.1004C195.986 55.1001 195.942 54.4283 195.943 53.6817C195.952 48.0367 195.948 42.3916 195.948 36.7465C195.948 33.7512 195.946 30.7558 195.949 27.7605C195.95 26.3456 196.219 26.0403 197.668 26.0608C201.222 26.111 204.775 26.2434 208.328 26.267C210.153 26.2791 211.98 26.1504 213.803 26.0437C214.819 25.9842 215.371 26.4894 215.51 27.41C215.612 28.0859 215.645 28.8101 215.512 29.4733C215.366 30.1987 214.949 30.6971 214.011 30.6843C210.249 30.633 206.483 30.7335 202.722 30.6346C200.715 30.5818 200.726 31.7444 200.79 33.034C200.846 34.1444 200.902 35.2713 200.774 36.3697C200.635 37.5698 201.093 38.2506 202.314 38.2705C202.621 38.2755 202.929 38.2712 203.348 38.2712Z" fill="white"/>
<path d="M358.484 26.2828C359.79 26.2829 360.98 26.2858 362.17 26.2822C363.119 26.2794 363.568 26.7536 363.558 27.6947C363.55 28.424 363.526 29.1551 363.562 29.8827C363.67 32.0485 363.107 32.2126 361.004 32.4835C359.946 32.6197 358.857 32.5229 357.782 32.5046C354.935 32.4564 354.905 33.0389 354.843 35.5188C354.696 41.3891 354.796 47.2657 354.796 53.1397C354.796 54.986 354.684 55.0988 352.859 55.1014C352.245 55.1022 351.63 55.0894 351.016 55.1036C348.432 55.1634 347.921 54.4899 347.897 51.918C347.841 46.0444 347.88 40.17 347.879 34.296C347.879 32.5479 347.837 32.5082 346.038 32.5077C344.349 32.5072 342.66 32.5156 340.97 32.5051C339.584 32.4965 339.353 32.2631 339.35 30.9215C339.347 29.8082 339.406 28.691 339.332 27.5825C339.266 26.5776 339.61 26.2548 340.632 26.2621C346.544 26.3045 352.457 26.2828 358.484 26.2828Z" fill="#77ABDB"/>
<path d="M222.688 40.7827C224.385 36.3509 226.087 32.0149 227.765 27.6694C228.342 26.1737 228.733 26.4528 230.359 26.1161C232.977 25.5737 233.276 27.3076 233.896 28.8643C237.231 37.2479 240.535 45.6439 243.844 54.0377C243.939 54.2778 243.976 54.5409 244.043 54.8067C241.615 56.1865 238.688 54.9206 237.674 52.0495C237.292 50.9709 236.854 49.9103 236.391 48.8633C235.973 47.9149 235.244 47.498 234.16 47.47C232.158 47.4182 230.156 47.2671 228.162 47.0791C226.674 46.9388 225.122 47.6429 224.478 49.0774C223.937 50.2841 223.539 51.5635 223.173 52.838C222.881 53.8542 222.318 54.5214 221.294 54.7709C220.465 54.9727 219.637 55.2534 218.797 55.308C217.381 55.4001 217.082 54.9809 217.579 53.6484C218.392 51.467 219.266 49.3082 220.132 47.1468C220.971 45.0516 221.832 42.9652 222.688 40.7827ZM229.849 34.2598C228.683 37.3231 227.516 40.3864 226.322 43.5202C229.17 43.5202 231.906 43.5202 234.8 43.5202C233.407 39.8006 232.051 36.1799 230.594 32.2891C230.319 33.0837 230.141 33.5994 229.849 34.2598Z" fill="white"/>
<path d="M151.31 54.1253C146.713 51.5173 144.074 47.7209 143.35 42.5219C142.966 39.762 143.237 37.1557 144.189 34.5681C145.186 31.8592 146.975 29.7821 149.371 28.2837C151.906 26.6991 154.699 25.6612 157.734 25.8497C161.533 26.0857 164.819 27.5517 167.186 30.6471C167.762 31.4008 168.16 32.363 167.531 33.3523C167.054 34.1026 165.241 34.9984 164.497 34.7881C164.234 34.7136 163.995 34.4073 163.831 34.1514C162.321 31.7938 160.096 30.4565 157.382 30.4962C154.004 30.5456 151.185 31.8826 149.578 35.1582C147.61 39.1687 147.658 43.0674 150.084 46.8443C151.706 49.3681 154.174 50.7474 157.079 50.8911C159.91 51.0311 162.19 49.5778 163.887 47.316C164.749 46.1665 165.352 46.0519 166.463 46.929C166.869 47.2494 167.315 47.5249 167.764 47.7836C168.594 48.2617 168.799 48.9278 168.221 49.7105C165.644 53.1977 162.216 55.1148 157.847 55.3434C155.588 55.4615 153.443 55.1002 151.31 54.1253Z" fill="white"/>
<path d="M172.432 35.9658C172.432 33.1227 172.428 30.3948 172.434 27.667C172.436 26.3275 172.807 25.99 174.127 26.0483C174.659 26.0718 175.195 26.0796 175.727 26.0468C176.896 25.9748 177.486 26.4833 177.499 27.6863C177.519 29.6071 177.504 31.5282 177.504 33.4493C177.504 38.7128 177.531 43.9767 177.482 49.2398C177.472 50.3641 177.952 50.7245 178.955 50.723C182.451 50.7177 185.948 50.7282 189.444 50.7149C190.147 50.7122 190.865 50.5204 191.55 50.6127C192.556 50.7483 192.844 51.4388 192.569 52.3979C192.498 52.6477 192.466 52.9305 192.502 53.186C192.731 54.813 192.504 55.1007 190.922 55.101C185.312 55.1021 179.703 55.065 174.094 55.1283C172.776 55.1432 172.422 54.7611 172.426 53.3701C172.44 47.6071 172.432 41.8441 172.432 35.9658Z" fill="white"/>
<path d="M126.794 63.8623C127.912 63.8504 128.924 63.7768 129.928 63.8411C131.381 63.9342 132.071 64.9882 132.267 66.233C132.565 68.1212 131.628 70.4299 128.905 70.3226C128.101 70.2909 127.295 70.3307 126.49 70.3152C124.054 70.2685 122.696 68.6487 123.111 66.2577C123.435 64.3919 124.361 63.7106 126.794 63.8623Z" fill="#77ABDB"/>
<path d="M129.164 74.5173C129.403 74.5957 129.542 74.658 129.689 74.6886C130.927 74.9481 131.977 75.5741 132.265 76.8246C132.594 78.2485 132.031 79.5179 130.96 80.5273C130.854 80.6277 130.696 80.7377 130.563 80.7361C128.567 80.7122 126.538 80.8726 124.585 80.5599C123.335 80.3596 122.77 78.4001 123.123 76.7602C123.408 75.4364 124.473 74.5163 125.85 74.4756C126.922 74.4439 127.995 74.4803 129.164 74.5173Z" fill="#77ABDB"/>
<path d="M355.719 72.3694C355.719 72.8619 355.719 73.2424 355.719 73.721C355.289 73.7457 354.888 73.7686 354.41 73.7959C354.41 70.7922 354.41 67.8244 354.41 64.8529C355.169 64.6657 355.708 64.7754 356.187 65.5379C356.795 66.5063 357.622 67.3371 358.312 68.1753C359.958 67.3064 360.113 64.6919 362.574 64.751C362.574 67.772 362.574 70.738 362.574 73.7402C362.081 73.7402 361.63 73.7402 361.055 73.7402C361.055 71.7311 361.055 69.6954 361.055 67.3826C360.305 68.3281 359.743 69.0489 359.167 69.7576C358.534 70.5367 358.155 70.508 357.568 69.7033C357.043 68.9842 356.485 68.2894 355.719 67.2956C355.719 69.1753 355.719 70.7164 355.719 72.3694Z" fill="white"/>
<path d="M225.914 73.7825C223.277 74.8329 219.956 72.0759 220.106 69.8704C220.304 66.9714 220.967 65.5662 223.368 64.9532C225.267 64.4681 227.485 64.6009 228.929 66.7393C230.473 69.0264 229.63 73.3519 225.914 73.7825ZM225.074 72.6227C225.454 72.488 225.843 72.3751 226.212 72.2146C227.845 71.5047 228.594 69.7058 227.941 68.0957C227.295 66.5036 225.227 65.7411 223.473 66.4484C221.988 67.0467 221.188 68.9301 221.771 70.4603C222.315 71.8885 223.514 72.378 225.074 72.6227Z" fill="white"/>
<path d="M172.663 70.7764C172.663 71.8092 172.663 72.727 172.663 73.6578C171.407 74.1748 170.819 73.2628 170.199 72.5502C168.768 70.9082 167.382 69.2275 165.795 67.3448C165.795 69.6358 165.795 71.6376 165.795 73.722C165.302 73.7459 164.9 73.7654 164.43 73.7882C164.43 70.7749 164.43 67.8038 164.43 64.8075C166.086 64.5531 166.529 66.0202 167.339 66.8657C168.659 68.2435 169.852 69.7424 171.245 71.3609C171.245 69.0668 171.245 66.9865 171.245 64.8463C171.737 64.8463 172.137 64.8463 172.663 64.8463C172.663 66.7718 172.663 68.7167 172.663 70.7764Z" fill="white"/>
<path d="M237.034 70.4818C236.192 69.4812 235.406 68.5416 234.469 67.4211C234.469 69.6576 234.469 71.6634 234.469 73.7215C233.978 73.7215 233.578 73.7215 233.121 73.7215C233.121 70.7765 233.121 67.8359 233.121 64.688C233.595 64.8416 234.159 64.8504 234.418 65.1357C236.265 67.1712 238.051 69.2631 239.948 71.4429C239.948 69.2051 239.948 67.0264 239.948 64.8184C240.462 64.8184 240.837 64.8184 241.289 64.8184C241.289 67.768 241.289 70.7356 241.289 73.6977C239.577 74.2837 239.201 72.6026 238.262 71.9086C237.792 71.561 237.477 71.0047 237.034 70.4818Z" fill="white"/>
<path d="M287.245 65.7444C287.245 65.3748 287.245 65.116 287.245 64.8213C287.718 64.8213 288.092 64.8213 288.548 64.8213C288.548 67.7672 288.548 70.7355 288.547 73.7047C287.387 74.1277 286.796 73.2787 286.191 72.5859C284.753 70.9386 283.361 69.2503 281.755 67.3468C281.755 69.6465 281.755 71.6744 281.755 73.7305C281.214 73.7305 280.814 73.7305 280.371 73.7305C280.371 70.7426 280.371 67.7999 280.371 64.8349C281.816 64.5008 282.309 65.7437 282.999 66.4771C284.416 67.9826 285.691 69.6213 287.245 71.4663C287.245 69.3973 287.245 67.6262 287.245 65.7444Z" fill="white"/>
<path d="M252.12 64.7847C253.159 65.0941 254.197 65.238 255.001 65.7497C256.331 66.5969 257.3 68.4627 256.554 70.8214C256.039 72.4499 254.045 73.9137 252.591 73.7977C251.296 73.6944 249.986 73.776 248.514 73.776C248.514 72.2918 248.514 70.8159 248.514 69.3399C248.514 67.8539 248.514 66.3678 248.514 64.7845C249.734 64.7845 250.874 64.7845 252.12 64.7847ZM254.14 71.7155C255.226 70.5756 255.545 68.9145 254.888 67.8139C254.07 66.4437 252.072 65.8421 249.971 66.3112C249.971 68.3352 249.971 70.3491 249.971 72.6522C251.403 72.3686 252.711 72.1096 254.14 71.7155Z" fill="white"/>
<path d="M311.685 70.4689C312.357 72.0294 313.532 72.6633 315.107 72.6215C316.635 72.581 316.81 72.3617 316.702 70.5787C316.151 70.5787 315.593 70.5787 314.974 70.5787C314.974 70.1702 314.974 69.8465 314.974 69.4568C315.968 69.4568 316.986 69.4568 318.139 69.4568C318.139 70.5771 318.158 71.7136 318.12 72.8483C318.114 73.0363 317.897 73.3125 317.713 73.3846C315.804 74.1326 313.879 74.3459 312.02 73.2615C310.099 72.1414 309.354 69.4755 310.355 67.4212C311.587 64.892 315.316 63.7819 317.557 65.3434C317.916 65.5937 317.882 66.4088 318.073 67.1262C316.042 66.1604 314.209 65.4486 312.469 67.1283C311.542 68.0225 311.16 69.1037 311.685 70.4689Z" fill="white"/>
<path d="M149.154 66.1678C146.941 66.0199 145.673 68.0143 145.714 69.4847C145.78 71.8247 147.67 72.8159 150.944 72.3223C150.944 71.7706 150.944 71.2114 150.944 70.5641C150.441 70.5641 149.961 70.5641 149.43 70.5641C149.43 70.1542 149.43 69.8301 149.43 69.4493C150.375 69.4493 151.317 69.4493 152.374 69.4493C152.374 70.5591 152.391 71.6601 152.358 72.7597C152.352 72.9619 152.194 73.2595 152.023 73.3417C150.079 74.2781 147.279 74.2579 145.536 72.6563C143.587 70.8653 143.656 66.2094 147.332 65.0301C149.042 64.4814 150.724 64.7037 152.339 65.5618C152.339 66.0527 152.339 66.544 152.339 66.9639C151.301 66.6957 150.278 66.4317 149.154 66.1678Z" fill="white"/>
<path d="M189.587 65.9176C190.325 67.5889 190.067 68.7029 188.847 69.5902C189.773 70.9208 190.699 72.2516 191.656 73.6272C189.868 73.9338 189.816 73.8788 188.793 72.2003C188.406 71.5669 187.921 70.9794 187.403 70.4479C187.164 70.2035 186.736 70.1442 186.241 69.9371C186.241 71.3549 186.241 72.5324 186.241 73.7408C185.709 73.7408 185.257 73.7408 184.729 73.7408C184.729 70.8258 184.729 67.8884 184.729 64.7913C186.356 64.8733 188.119 64.3887 189.587 65.9176ZM187.195 68.7037C188.085 68.5104 188.528 67.9129 188.309 67.0686C188.044 66.0441 187.177 66.1003 186.266 66.2261C186.266 66.9032 186.208 67.5535 186.299 68.1819C186.329 68.3854 186.752 68.5315 187.195 68.7037Z" fill="white"/>
<path d="M305.843 73.7471C305.026 72.687 304.351 71.6106 303.548 70.6388C303.248 70.2751 302.653 70.1552 302.001 69.8287C302.001 71.3235 302.001 72.5009 302.001 73.7259C301.524 73.7259 301.124 73.7259 300.67 73.7259C300.67 70.774 300.67 67.8388 300.67 64.6987C301.727 64.802 302.756 64.9405 303.789 64.9933C304.932 65.0516 305.672 65.6736 305.885 66.6978C306.119 67.8276 305.839 68.9112 304.815 69.582C305.739 70.9308 306.654 72.267 307.685 73.7722C306.972 73.7722 306.453 73.7722 305.843 73.7471ZM304.23 66.8909C303.668 66.0903 302.902 66.0426 302.054 66.2451C302.054 67.0874 302.054 67.876 302.054 68.6607C303.764 68.748 304.264 68.3834 304.23 66.8909Z" fill="white"/>
<path d="M198.715 65.9315C199.88 68.5683 201.036 71.1137 202.191 73.6569C201.093 74.0573 200.478 73.6735 200.082 72.6682C199.877 72.1495 199.52 71.3815 199.125 71.3084C198.129 71.1243 196.986 71.0386 196.072 71.375C195.552 71.5663 195.361 72.6621 195.035 73.3569C194.981 73.4721 194.996 73.6199 194.98 73.7487C194.427 73.7487 193.973 73.7487 193.332 73.7487C193.645 72.9383 193.906 72.2006 194.211 71.4816C195.089 69.4134 195.974 67.3479 196.89 65.2961C196.988 65.0761 197.297 64.8283 197.519 64.8175C197.778 64.8049 198.086 64.9949 198.302 65.1799C198.488 65.3397 198.575 65.6156 198.715 65.9315ZM197.936 67.803C197.847 67.668 197.759 67.533 197.628 67.3343C197.279 68.1852 196.954 68.975 196.627 69.7714C197.388 69.7714 198.041 69.7714 198.72 69.7714C198.464 69.1104 198.242 68.535 197.936 67.803Z" fill="white"/>
<path d="M328.915 66.553C329.377 65.8991 329.072 64.7431 330.251 64.7953C331.281 64.841 331.127 65.8362 331.411 66.4408C332.543 68.8483 333.624 71.2798 334.714 73.6805C333.299 74.1413 332.697 73.4292 332.434 72.2285C332.272 71.4917 331.874 71.1105 331.077 71.2335C330.814 71.274 330.532 71.2829 330.272 71.2327C328.951 70.9768 328.111 71.4402 327.827 72.7965C327.605 73.8599 326.887 73.9274 325.863 73.6607C326.873 71.2932 327.868 68.9606 328.915 66.553ZM329.657 68.5859C329.502 68.9795 329.347 69.3731 329.19 69.7721C329.946 69.7721 330.602 69.7721 331.329 69.7721C330.926 68.917 330.57 68.1612 330.163 67.296C329.967 67.7393 329.82 68.071 329.657 68.5859Z" fill="white"/>
<path d="M209.058 74.0065C206.889 74.0607 205.19 73.2427 204.352 71.3843C203.626 69.7727 203.655 67.4123 205.583 65.8407C206.947 64.7284 209.588 64.2437 212.051 65.5754C212.051 66.0519 212.051 66.5435 212.051 67.1512C210.053 66.1408 208.056 65.4559 206.266 67.2948C205.258 68.3305 205.155 69.8329 206.113 71.1545C207.788 73.4676 209.931 72.5497 211.982 71.6087C212.183 73.2852 212.065 73.483 210.711 73.7658C210.2 73.8725 209.678 73.9278 209.058 74.0065Z" fill="white"/>
<path d="M261.518 70.1757C261.439 70.9325 261.439 71.6133 261.439 72.3802C262.748 72.3802 263.996 72.3802 265.292 72.3802C265.292 72.8675 265.292 73.2675 265.292 73.7221C263.575 73.7221 261.869 73.7221 260.102 73.7221C260.102 70.7827 260.102 67.8514 260.102 64.8521C261.714 64.8521 263.342 64.8521 265.063 64.8521C265.083 65.2237 265.104 65.6248 265.13 66.1135C263.921 66.1135 262.75 66.1135 261.501 66.1135C261.501 66.9791 261.501 67.7634 261.501 68.6759C262.644 68.6759 263.843 68.6759 265.077 68.6759C265.077 69.1761 265.077 69.55 265.077 70.0997C263.934 70.0997 262.766 70.0997 261.518 70.1757Z" fill="white"/>
<path d="M275.479 66.1678C274.758 66.1678 274.149 66.1678 273.476 66.1678C273.476 67.0058 273.476 67.7912 273.476 68.6708C274.635 68.6708 275.808 68.6708 277.04 68.6708C277.04 69.1625 277.04 69.5635 277.04 70.0549C275.885 70.0549 274.711 70.0549 273.475 70.0549C273.475 70.8495 273.475 71.5582 273.475 72.361C274.712 72.361 275.962 72.361 277.271 72.361C277.271 72.8525 277.271 73.2534 277.271 73.7157C275.576 73.7157 273.865 73.7157 272.092 73.7157C272.092 70.7824 272.092 67.8456 272.092 64.8464C273.718 64.8464 275.349 64.8464 277.041 64.8464C277.041 65.246 277.041 65.6469 277.041 66.1678C276.566 66.1678 276.079 66.1678 275.479 66.1678Z" fill="white"/>
<path d="M295.768 66.1678C295.047 66.1678 294.438 66.1678 293.765 66.1678C293.765 67.0058 293.765 67.7912 293.765 68.6708C294.924 68.6708 296.097 68.6708 297.329 68.6708C297.329 69.1625 297.329 69.5635 297.329 70.0549C296.174 70.0549 295 70.0549 293.764 70.0549C293.764 70.8495 293.764 71.5582 293.764 72.361C295.001 72.361 296.251 72.361 297.56 72.361C297.56 72.8525 297.56 73.2534 297.56 73.7157C295.865 73.7157 294.154 73.7157 292.381 73.7157C292.381 70.7824 292.381 67.8456 292.381 64.8464C294.007 64.8464 295.638 64.8464 297.33 64.8464C297.33 65.246 297.33 65.6469 297.33 66.1678C296.855 66.1678 296.368 66.1678 295.768 66.1678Z" fill="white"/>
<path d="M179.115 64.7845C179.915 64.7845 180.602 64.7845 181.375 64.7845C181.395 65.2301 181.414 65.6318 181.436 66.1256C180.219 66.1256 179.045 66.1256 177.804 66.1256C177.804 66.9961 177.804 67.7818 177.804 68.6619C178.948 68.6619 180.12 68.6619 181.373 68.6619C181.396 69.1515 181.414 69.553 181.436 70.046C180.218 70.046 179.044 70.046 177.804 70.046C177.804 70.8395 177.804 71.5486 177.804 72.3519C179.025 72.3519 180.274 72.3519 181.605 72.3519C181.627 72.8412 181.644 73.2427 181.665 73.7113C179.91 73.7113 178.199 73.7113 176.42 73.7113C176.42 70.7929 176.42 67.8561 176.42 64.7845C177.264 64.7845 178.133 64.7845 179.115 64.7845Z" fill="white"/>
<path d="M156.062 71.6924C156.062 69.3556 156.062 67.1332 156.062 64.8479C157.748 64.8479 159.379 64.8479 161.073 64.8479C161.073 65.2431 161.073 65.644 161.073 66.1351C159.919 66.1351 158.745 66.1351 157.509 66.1351C157.509 67.0067 157.509 67.7918 157.509 68.6712C158.668 68.6712 159.841 68.6712 161.073 68.6712C161.073 69.1628 161.073 69.5637 161.073 70.055C159.918 70.055 158.744 70.055 157.509 70.055C157.509 70.8495 157.509 71.5583 157.509 72.3607C158.745 72.3607 159.995 72.3607 161.304 72.3607C161.304 72.8494 161.304 73.2508 161.304 73.7154C159.61 73.7154 157.9 73.7154 156.062 73.7154C156.062 73.0852 156.062 72.446 156.062 71.6924Z" fill="white"/>
<path d="M368.798 64.7845C370.551 64.8792 371.721 65.6891 371.857 66.8275C372.048 68.4235 371.514 69.4492 370.16 69.8371C369.416 70.0503 368.618 70.0775 367.749 70.2024C367.749 71.2965 367.749 72.4665 367.749 73.7057C367.188 73.7057 366.712 73.7057 366.164 73.7057C366.164 70.8159 366.164 67.883 366.164 64.7845C366.969 64.7845 367.83 64.7845 368.798 64.7845ZM370.244 67.0359C369.7 65.8868 368.697 66.2191 367.755 66.1803C367.755 67.0564 367.755 67.8406 367.755 68.6195C369.938 68.8345 370.212 68.6786 370.244 67.0359Z" fill="white"/>
<path d="M346.259 72.6497C346.266 73.0595 346.266 73.3603 346.266 73.7176C344.51 73.7176 342.805 73.7176 341.031 73.7176C341.031 70.7695 341.031 67.8112 341.031 64.8186C341.441 64.8186 341.816 64.8186 342.311 64.8186C342.311 67.2962 342.311 69.7962 342.311 72.3055C343.704 72.3886 344.978 72.4646 346.259 72.6497Z" fill="white"/>
<path d="M375.541 64.7846C375.846 64.9706 376.211 65.1544 376.213 65.343C376.25 68.1244 376.238 70.9065 376.238 73.7317C375.673 73.7317 375.198 73.7317 374.625 73.7317C374.625 70.9165 374.645 68.1353 374.611 65.3546C374.603 64.6423 375.036 64.7952 375.541 64.7846Z" fill="white"/>
<path d="M349.033 71.2354C349.033 69.06 349.033 66.9993 349.033 64.8617C349.54 64.8617 350.016 64.8617 350.57 64.8617C350.57 67.7539 350.57 70.7095 350.57 73.7209C350.103 73.7209 349.627 73.7209 349.033 73.7209C349.033 72.9327 349.033 72.1414 349.033 71.2354Z" fill="white"/>
<path d="M322.079 64.785C322.489 64.7845 322.789 64.7845 323.151 64.7845C323.151 67.7904 323.151 70.7478 323.151 73.7406C322.659 73.7406 322.209 73.7406 321.599 73.7406C321.599 72.4081 321.599 71.0491 321.599 69.69C321.599 68.3136 321.58 66.9367 321.616 65.5611C321.622 65.2997 321.846 65.0439 322.079 64.785Z" fill="white"/>
<path d="M215.395 64.8846C215.838 64.7998 216.213 64.7998 216.643 64.7998C216.643 67.7728 216.643 70.702 216.643 73.7241C216.261 73.7452 215.861 73.7673 215.326 73.7967C215.326 70.8286 215.326 67.899 215.395 64.8846Z" fill="white"/>
<path d="M323.61 63.5589C323.072 63.8965 323.006 64.8808 321.955 64.3955C322.223 63.7008 322.492 63.0016 322.757 62.316C323.316 62.316 323.822 62.316 324.448 62.316C324.141 62.7749 323.902 63.1311 323.61 63.5589Z" fill="white"/>
<path d="M225.771 63.2054C225.219 63.858 224.978 64.8347 223.725 64.4243C224.553 63.6898 224.09 61.7816 226.187 62.3431C226.068 62.6184 225.954 62.8826 225.771 63.2054Z" fill="white"/>
<path d="M14.2829 36.6644C10.5405 34.2883 7.41149 31.3296 4.50773 28.1134C3.40303 26.8898 3.37613 26.4798 4.46879 25.3465C7.3602 22.3475 10.2609 19.3693 13.9265 17.2603C16.8997 15.5497 20.0538 14.4595 23.3947 15.535C25.5523 16.2296 27.574 17.4868 29.4959 18.7386C32.0533 20.4043 34.182 22.5911 36.2509 25.1486C31.9887 25.1486 27.9366 25.1499 23.8845 25.1478C22.8478 25.1472 21.8109 25.1443 20.7744 25.1278C19.6821 25.1104 19.2817 25.7753 19.1395 27.3174C19.0416 28.3795 19.7906 28.6197 20.7214 28.5976C22.2182 28.5621 23.717 28.5646 25.2141 28.593C28.4632 28.6544 31.7119 28.7376 34.9603 28.8272C35.2793 28.836 35.5954 28.9514 35.8878 29.0121C35.897 29.2091 35.9349 29.3147 35.8992 29.3548C32.8693 32.7553 29.4133 35.6189 25.2648 37.5549C21.4894 39.3169 17.8436 38.9174 14.2829 36.6644Z" fill="#77ABDB"/>
<path d="M40.4734 41.1964C43.6988 35.5127 48.7889 32.3832 54.6673 30.0261C55.2501 32.3874 55.0952 34.5328 54.3981 36.5793C51.8182 44.1528 46.0849 48.0911 38.6486 49.9977C38.5797 50.0154 38.4982 49.9842 38.284 49.9604C38.2553 46.88 38.9785 43.9911 40.4734 41.1964Z" fill="#A0BA34"/>
<path d="M52.2592 12.7566C54.581 16.4145 54.8578 20.4575 54.9587 24.6223C54.8077 24.6223 54.5966 24.6869 54.4613 24.613C50.3688 22.375 46.2228 20.2027 43.1218 16.5734C40.8386 13.9011 39.4278 10.8461 39.1618 7.30021C39.1168 6.70068 38.9873 6.09633 38.8114 5.52032C38.5278 4.59197 38.9443 4.32804 39.774 4.37721C39.9261 4.38622 40.0905 4.37146 40.2273 4.42428C44.8825 6.2209 49.3491 8.29445 52.2592 12.7566Z" fill="#A0BA34"/>
</svg>
